<svg width="17" height="17" viewBox="0 0 17 17" fill="none" xmlns="http://www.w3.org/2000/svg">
<path fill-rule="evenodd" clip-rule="evenodd" d="M3.66723 10.5494C5.20523 10.5494 6.45223 11.8284 6.45223 13.4064C6.45223 14.9834 5.20523 16.2634 3.66723 16.2634C2.12823 16.2634 0.881226 14.9834 0.881226 13.4064C0.881226 11.8284 2.12823 10.5494 3.66723 10.5494ZM3.66723 0.263428C5.20523 0.263428 6.45123 1.54343 6.45123 3.12043C6.45123 4.69843 5.20423 5.97743 3.66623 5.97743C2.12823 5.97743 0.881226 4.69843 0.881226 3.12043C0.881226 1.54343 2.12823 0.263428 3.66723 0.263428ZM13.6952 0.263428C15.2342 0.263428 16.4812 1.54343 16.4812 3.12043C16.4812 4.69843 15.2342 5.97743 13.6952 5.97743C12.1572 5.97743 10.9102 4.69843 10.9102 3.12043C10.9102 1.54343 12.1572 0.263428 13.6952 0.263428Z" fill="#F3603C"/>
<path opacity="0.5" d="M13.6952 16.3775C15.2339 16.3775 16.4812 15.0983 16.4812 13.5205C16.4812 11.9426 15.2339 10.6635 13.6952 10.6635C12.1566 10.6635 10.9092 11.9426 10.9092 13.5205C10.9092 15.0983 12.1566 16.3775 13.6952 16.3775Z" fill="#F3603C"/>
</svg>
